<mxfile host="app.diagrams.net" agent="Mozilla/5.0 (Windows NT 10.0; Win64; x64) AppleWebKit/537.36 (KHTML, like Gecko) Chrome/133.0.0.0 Safari/537.36" version="26.0.11">
  <diagram name="Página-1" id="J8z_huwh9G2GrP6GsSNg">
    <mxGraphModel dx="865" dy="333" grid="1" gridSize="10" guides="1" tooltips="1" connect="1" arrows="1" fold="1" page="1" pageScale="1" pageWidth="827" pageHeight="1169" math="0" shadow="0">
      <root>
        <mxCell id="0" />
        <mxCell id="1" parent="0" />
        <mxCell id="iUAJO40bHsZZIUTenPuc-2" value="" style="endArrow=classic;html=1;rounded=0;" edge="1" parent="1">
          <mxGeometry width="50" height="50" relative="1" as="geometry">
            <mxPoint x="329.5" y="120" as="sourcePoint" />
            <mxPoint x="330" y="120" as="targetPoint" />
            <Array as="points">
              <mxPoint x="330" y="80" />
            </Array>
          </mxGeometry>
        </mxCell>
        <mxCell id="iUAJO40bHsZZIUTenPuc-5" value="" style="ellipse;whiteSpace=wrap;html=1;" vertex="1" parent="1">
          <mxGeometry x="270" y="30" width="120" height="50" as="geometry" />
        </mxCell>
        <mxCell id="iUAJO40bHsZZIUTenPuc-6" value="inicio" style="text;html=1;align=center;verticalAlign=middle;resizable=0;points=[];autosize=1;strokeColor=none;fillColor=none;" vertex="1" parent="1">
          <mxGeometry x="305" y="40" width="50" height="30" as="geometry" />
        </mxCell>
        <mxCell id="iUAJO40bHsZZIUTenPuc-7" value="" style="rounded=0;whiteSpace=wrap;html=1;" vertex="1" parent="1">
          <mxGeometry x="275" y="120" width="110" height="60" as="geometry" />
        </mxCell>
        <mxCell id="iUAJO40bHsZZIUTenPuc-9" value="" style="endArrow=classic;html=1;rounded=0;entryX=0.5;entryY=0;entryDx=0;entryDy=0;" edge="1" parent="1" target="iUAJO40bHsZZIUTenPuc-18">
          <mxGeometry width="50" height="50" relative="1" as="geometry">
            <mxPoint x="330" y="180" as="sourcePoint" />
            <mxPoint x="330" y="210" as="targetPoint" />
          </mxGeometry>
        </mxCell>
        <mxCell id="iUAJO40bHsZZIUTenPuc-10" value="cm=0&lt;div&gt;P=0&lt;/div&gt;" style="text;html=1;align=center;verticalAlign=middle;resizable=0;points=[];autosize=1;strokeColor=none;fillColor=none;" vertex="1" parent="1">
          <mxGeometry x="305" y="130" width="50" height="40" as="geometry" />
        </mxCell>
        <mxCell id="iUAJO40bHsZZIUTenPuc-13" value="" style="endArrow=classic;html=1;rounded=0;" edge="1" parent="1">
          <mxGeometry width="50" height="50" relative="1" as="geometry">
            <mxPoint x="329.5" y="280" as="sourcePoint" />
            <mxPoint x="329.5" y="330" as="targetPoint" />
          </mxGeometry>
        </mxCell>
        <mxCell id="iUAJO40bHsZZIUTenPuc-18" value="" style="shape=parallelogram;perimeter=parallelogramPerimeter;whiteSpace=wrap;html=1;fixedSize=1;" vertex="1" parent="1">
          <mxGeometry x="270" y="220" width="120" height="60" as="geometry" />
        </mxCell>
        <mxCell id="iUAJO40bHsZZIUTenPuc-19" value="&lt;div style=&quot;text-align: left;&quot;&gt;&lt;br&gt;&lt;/div&gt;" style="text;html=1;align=center;verticalAlign=middle;resizable=0;points=[];autosize=1;strokeColor=none;fillColor=none;" vertex="1" parent="1">
          <mxGeometry x="560" y="330" width="20" height="30" as="geometry" />
        </mxCell>
        <mxCell id="iUAJO40bHsZZIUTenPuc-21" value="P" style="text;html=1;align=center;verticalAlign=middle;resizable=0;points=[];autosize=1;strokeColor=none;fillColor=none;" vertex="1" parent="1">
          <mxGeometry x="315" y="235" width="30" height="30" as="geometry" />
        </mxCell>
        <mxCell id="iUAJO40bHsZZIUTenPuc-22" value="" style="endArrow=classic;html=1;rounded=0;" edge="1" parent="1">
          <mxGeometry width="50" height="50" relative="1" as="geometry">
            <mxPoint x="329.5" y="390" as="sourcePoint" />
            <mxPoint x="330" y="440" as="targetPoint" />
          </mxGeometry>
        </mxCell>
        <mxCell id="iUAJO40bHsZZIUTenPuc-27" value="" style="rounded=0;whiteSpace=wrap;html=1;" vertex="1" parent="1">
          <mxGeometry x="270" y="330" width="120" height="60" as="geometry" />
        </mxCell>
        <mxCell id="iUAJO40bHsZZIUTenPuc-28" value="CM&amp;nbsp;← P*2.54" style="text;html=1;align=center;verticalAlign=middle;resizable=0;points=[];autosize=1;strokeColor=none;fillColor=none;" vertex="1" parent="1">
          <mxGeometry x="280" y="345" width="100" height="30" as="geometry" />
        </mxCell>
        <mxCell id="iUAJO40bHsZZIUTenPuc-30" value="" style="shape=document;whiteSpace=wrap;html=1;boundedLbl=1;" vertex="1" parent="1">
          <mxGeometry x="270" y="440" width="120" height="80" as="geometry" />
        </mxCell>
        <mxCell id="iUAJO40bHsZZIUTenPuc-31" value="La cant. de centimetros equivalente a P es: CM" style="text;html=1;align=center;verticalAlign=middle;whiteSpace=wrap;rounded=0;" vertex="1" parent="1">
          <mxGeometry x="272.5" y="460" width="115" height="30" as="geometry" />
        </mxCell>
        <mxCell id="iUAJO40bHsZZIUTenPuc-32" value="&lt;font style=&quot;font-size: 19px;&quot;&gt;CONVERSION CENTIMETROS A PULGADAS.&lt;/font&gt;&lt;div&gt;&lt;span style=&quot;font-size: 19px;&quot;&gt;&lt;br&gt;&lt;/span&gt;&lt;div style=&quot;line-height: 150%;&quot;&gt;&lt;font style=&quot;font-size: 19px;&quot;&gt;1.Inicio&lt;/font&gt;&lt;/div&gt;&lt;div style=&quot;line-height: 150%;&quot;&gt;&lt;font style=&quot;font-size: 19px;&quot;&gt;2. DV CM, P&lt;/font&gt;&lt;/div&gt;&lt;div style=&quot;line-height: 150%;&quot;&gt;&lt;font style=&quot;font-size: 19px;&quot;&gt;3. Imp Pulgadas&lt;/font&gt;&lt;/div&gt;&lt;div style=&quot;line-height: 150%;&quot;&gt;&lt;font style=&quot;font-size: 19px;&quot;&gt;4. Leer P&lt;/font&gt;&lt;/div&gt;&lt;div style=&quot;line-height: 150%;&quot;&gt;&lt;font style=&quot;font-size: 19px;&quot;&gt;5. Imprimir Centimetros&lt;/font&gt;&lt;/div&gt;&lt;div style=&quot;line-height: 150%;&quot;&gt;&lt;font style=&quot;font-size: 19px;&quot;&gt;6. Leer CM&lt;/font&gt;&lt;/div&gt;&lt;div style=&quot;line-height: 150%;&quot;&gt;&lt;font style=&quot;font-size: 19px;&quot;&gt;7. CM = P*2.54&lt;/font&gt;&lt;/div&gt;&lt;div style=&quot;line-height: 150%;&quot;&gt;&lt;font style=&quot;font-size: 19px;&quot;&gt;8. Imprimir Resultado&lt;/font&gt;&lt;/div&gt;&lt;div style=&quot;line-height: 150%;&quot;&gt;&lt;font style=&quot;font-size: 19px;&quot;&gt;9. Fin&lt;/font&gt;&lt;/div&gt;&lt;/div&gt;" style="text;html=1;align=center;verticalAlign=middle;whiteSpace=wrap;rounded=0;" vertex="1" parent="1">
          <mxGeometry x="480" y="70" width="280" height="240" as="geometry" />
        </mxCell>
        <mxCell id="iUAJO40bHsZZIUTenPuc-33" value="Fin" style="ellipse;whiteSpace=wrap;html=1;" vertex="1" parent="1">
          <mxGeometry x="270" y="560" width="120" height="50" as="geometry" />
        </mxCell>
        <mxCell id="iUAJO40bHsZZIUTenPuc-34" value="" style="endArrow=classic;html=1;rounded=0;entryX=0.5;entryY=0;entryDx=0;entryDy=0;" edge="1" parent="1" target="iUAJO40bHsZZIUTenPuc-33">
          <mxGeometry width="50" height="50" relative="1" as="geometry">
            <mxPoint x="330" y="520" as="sourcePoint" />
            <mxPoint x="350" y="530" as="targetPoint" />
          </mxGeometry>
        </mxCell>
      </root>
    </mxGraphModel>
  </diagram>
</mxfile>
